<svg width="512" height="214" viewBox="0 0 512 214" fill="none" xmlns="http://www.w3.org/2000/svg">
<path d="M18.1368 75.9H3.6168L2.7368 71.06C2.7368 71.06 13.2968 68.64 18.1368 64.24V55.88C18.1368 27.72 32.8768 -1.3113e-05 64.7768 -1.3113e-05C82.3768 -1.3113e-05 91.1768 6.81999 91.1768 14.52C91.1768 20.68 85.6768 24.64 80.3968 24.64C79.0768 24.64 78.1968 24.42 78.1968 24.42C77.0968 21.12 72.0368 9.01999 59.9368 9.01999C44.0968 9.01999 37.0568 25.52 37.0568 49.28V66H72.2568V76.34H37.0568V145.2C37.0568 155.54 39.9168 157.74 46.5168 158.18L58.3968 159.06V165C58.3968 165 37.4968 164.34 27.8168 164.34C17.6968 164.34 0.536797 165 0.536797 165V159.06L6.4768 158.18C13.0768 157.3 18.1368 151.8 18.1368 143.44V75.9ZM100.044 143.66C100.044 153.34 106.424 157.52 113.904 157.52C124.464 157.52 128.424 152.9 137.444 150.7C137.444 150.7 136.344 144.54 136.344 136.4C136.344 128.48 136.564 121.22 136.564 121.22C116.764 121.22 100.044 128.48 100.044 143.66ZM136.784 114.18C136.784 114.18 137.444 99.44 137.444 92.18C137.444 80.52 133.484 71.72 119.624 71.72C109.064 71.72 104.884 77.44 104.884 82.94C104.884 86.46 106.204 89.32 107.744 91.08C104.884 93.28 101.144 94.38 97.1838 94.38C90.1438 94.38 85.5238 90.64 85.5238 84.26C85.5238 72.38 104.224 62.48 124.464 62.48C147.124 62.48 155.704 75.68 155.704 96.14C155.704 110 154.604 123.64 154.604 138.38C154.604 149.38 155.924 156.42 164.944 156.42C170.444 156.42 173.964 154.22 173.964 154.22L175.944 157.96C175.944 157.96 169.344 168.52 156.584 168.52C146.244 168.52 140.744 161.92 138.984 155.54C129.964 157.52 123.584 168.52 105.984 168.52C90.1438 168.52 80.6838 160.6 80.6838 146.08C80.6838 121.44 111.264 114.18 136.784 114.18ZM292.049 158.18L298.869 159.06V165C298.869 165 284.349 164.34 274.669 164.34C263.889 164.34 248.269 165 248.269 165V159.06L252.889 158.18C259.489 156.86 264.549 151.8 264.549 143.44V93.94C264.549 82.06 258.609 75.9 247.169 75.9C235.509 75.9 227.149 83.38 218.789 84.92V145.2C218.789 155.54 220.329 157.52 227.369 158.18L234.409 159.06V165C234.409 165 219.229 164.34 209.329 164.34C199.429 164.34 182.049 165 182.049 165V159.06L188.209 158.18C194.809 157.3 199.869 151.8 199.869 143.44V90.86C199.869 81.4 196.129 77.66 183.369 77.66L182.049 72.82C202.509 70.84 218.789 62.7 218.789 62.7V78.76C224.069 77.22 237.269 62.48 254.429 62.48C274.009 62.48 283.249 75.24 283.249 91.52V145.2C283.249 155.54 285.009 157.3 292.049 158.18ZM356.138 72.38C340.738 72.38 328.418 84.92 328.418 113.52C328.418 133.98 340.078 154.44 366.258 154.44C376.378 154.44 384.958 152.46 391.338 149.38L393.538 153.56C390.678 157.08 378.798 168.52 356.358 168.52C339.638 168.52 309.058 157.08 309.058 117.92C309.058 89.54 329.518 62.48 364.718 62.48C379.458 62.48 395.518 68.42 395.518 80.3C395.518 86.9 388.258 91.08 381.438 91.08C379.238 91.08 377.258 90.64 375.278 89.76C375.278 89.76 376.158 87.56 376.158 84.7C376.158 79.42 372.198 72.38 356.138 72.38ZM452.336 66V71.94L446.836 72.82C442.436 73.48 440.236 75.02 440.236 77.88C440.236 78.32 440.236 79.42 440.676 80.96L460.256 144.32L484.456 82.28C485.116 80.3 485.556 78.98 485.556 78.1C485.556 75.46 483.796 73.48 479.836 72.82L473.896 71.94V66C473.896 66 483.136 66.66 494.796 66.66C504.476 66.66 511.736 66 511.736 66V71.94L508.436 72.6C501.836 73.92 496.996 77.22 493.476 85.8L452.336 183.26C444.856 201.08 434.296 213.84 416.696 213.84C400.856 213.84 396.456 205.7 396.456 198.88C396.456 194.04 400.196 188.76 408.336 188.76C409.656 188.76 411.416 188.98 411.856 189.2C411.636 189.86 411.416 190.74 411.416 191.62C411.416 197.78 415.156 200.2 421.316 200.2C431.436 200.2 439.796 194.26 445.296 180.4L450.796 166.76L422.416 86.46C418.896 76.34 414.936 73.7 409.436 72.82L403.496 71.94V66C403.496 66 420.216 66.66 430.116 66.66C438.696 66.66 452.336 66 452.336 66Z" fill="black"/>
</svg>
